<svg width="24" height="24" viewBox="0 0 24 24" fill="none" xmlns="http://www.w3.org/2000/svg">
<rect width="24" height="24" fill="#EFEFEF"/>
<g id="Sales dashboard" clip-path="url(#clip0_0_1)">
<rect width="1600" height="1200" transform="translate(-191 -531)" fill="#565656"/>
<rect width="1600" height="1200" transform="translate(-191 -531)" fill="url(#paint0_radial_0_1)"/>
<g id="Vector 7" filter="url(#filter0_f_0_1)">
<path d="M-235.299 91.7125C-249.913 48.6659 -250.305 -71.5253 -134.956 -207.918C9.23106 -378.408 97.1479 -409.695 -50.3543 -584" stroke="#7AFF29" stroke-width="34"/>
</g>
<g id="Group 60">
<g id="Rectangle 18" filter="url(#filter1_bd_0_1)">
<rect x="-53" y="-383" width="1324" height="904" rx="56" fill="url(#paint1_radial_0_1)" fill-opacity="0.8" shape-rendering="crispEdges"/>
<rect x="-52.5" y="-382.5" width="1323" height="903" rx="55.5" stroke="url(#paint2_linear_0_1)" shape-rendering="crispEdges"/>
</g>
<g id="Frame 2" filter="url(#filter2_d_0_1)">
<g clip-path="url(#clip1_0_1)">
<rect x="-21" y="-353" width="160" height="819" rx="25" fill="url(#paint3_linear_0_1)" shape-rendering="crispEdges"/>
<g id="Group 50">
<g id="Frame 25">
<g id="Frame 16">
<g id="Frame 15">
<g id="Envelope">
<path id="Vector" d="M21 4.5H3C2.80109 4.5 2.61032 4.57902 2.46967 4.71967C2.32902 4.86032 2.25 5.05109 2.25 5.25V18C2.25 18.3978 2.40804 18.7794 2.68934 19.0607C2.97064 19.342 3.35218 19.5 3.75 19.5H20.25C20.6478 19.5 21.0294 19.342 21.3107 19.0607C21.592 18.7794 21.75 18.3978 21.75 18V5.25C21.75 5.05109 21.671 4.86032 21.5303 4.71967C21.3897 4.57902 21.1989 4.5 21 4.5ZM9.25312 12L3.75 17.0438V6.95625L9.25312 12ZM10.3594 13.0219L11.4937 14.0531C11.632 14.1796 11.8126 14.2498 12 14.2498C12.1874 14.2498 12.368 14.1796 12.5062 14.0531L13.6406 13.0219L19.0687 18H4.93125L10.3594 13.0219ZM14.7469 12L20.25 6.95625V17.0438L14.7469 12Z" fill="#D5BBFF"/>
</g>
</g>
</g>
</g>
</g>
</g>
</g>
</g>
</g>
<defs>
<filter id="filter0_f_0_1" x="-434.043" y="-769.982" width="651.825" height="1042.16" filterUnits="userSpaceOnUse" color-interpolation-filters="sRGB">
<feFlood flood-opacity="0" result="BackgroundImageFix"/>
<feBlend mode="normal" in="SourceGraphic" in2="BackgroundImageFix" result="shape"/>
<feGaussianBlur stdDeviation="87.5" result="effect1_foregroundBlur_0_1"/>
</filter>
<filter id="filter1_bd_0_1" x="-104" y="-434" width="1438" height="1036" filterUnits="userSpaceOnUse" color-interpolation-filters="sRGB">
<feFlood flood-opacity="0" result="BackgroundImageFix"/>
<feGaussianBlur in="BackgroundImageFix" stdDeviation="25.5"/>
<feComposite in2="SourceAlpha" operator="in" result="effect1_backgroundBlur_0_1"/>
<feColorMatrix in="SourceAlpha" type="matrix" values="0 0 0 0 0 0 0 0 0 0 0 0 0 0 0 0 0 0 127 0" result="hardAlpha"/>
<feMorphology radius="17" operator="dilate" in="SourceAlpha" result="effect2_dropShadow_0_1"/>
<feOffset dx="10" dy="28"/>
<feGaussianBlur stdDeviation="18"/>
<feComposite in2="hardAlpha" operator="out"/>
<feColorMatrix type="matrix" values="0 0 0 0 0 0 0 0 0 0 0 0 0 0 0 0 0 0 0.25 0"/>
<feBlend mode="normal" in2="effect1_backgroundBlur_0_1" result="effect2_dropShadow_0_1"/>
<feBlend mode="normal" in="SourceGraphic" in2="effect2_dropShadow_0_1" result="shape"/>
</filter>
<filter id="filter2_d_0_1" x="-43" y="-354" width="204" height="863" filterUnits="userSpaceOnUse" color-interpolation-filters="sRGB">
<feFlood flood-opacity="0" result="BackgroundImageFix"/>
<feColorMatrix in="SourceAlpha" type="matrix" values="0 0 0 0 0 0 0 0 0 0 0 0 0 0 0 0 0 0 127 0" result="hardAlpha"/>
<feMorphology radius="1" operator="dilate" in="SourceAlpha" result="effect1_dropShadow_0_1"/>
<feOffset dy="21"/>
<feGaussianBlur stdDeviation="10.5"/>
<feComposite in2="hardAlpha" operator="out"/>
<feColorMatrix type="matrix" values="0 0 0 0 0.176484 0 0 0 0 0.113295 0 0 0 0 0.279167 0 0 0 0.53 0"/>
<feBlend mode="normal" in2="BackgroundImageFix" result="effect1_dropShadow_0_1"/>
<feBlend mode="normal" in="SourceGraphic" in2="effect1_dropShadow_0_1" result="shape"/>
</filter>
<radialGradient id="paint0_radial_0_1" cx="0" cy="0" r="1" gradientUnits="userSpaceOnUse" gradientTransform="translate(874 -449.5) rotate(100.416) scale(2295.33 3060.44)">
<stop stop-color="#2C0E6A"/>
<stop offset="1" stop-color="#070312" stop-opacity="0.5"/>
</radialGradient>
<radialGradient id="paint1_radial_0_1" cx="0" cy="0" r="1" gradientUnits="userSpaceOnUse" gradientTransform="translate(634.896 -20.2545) rotate(82.2465) scale(896.927 1333.32)">
<stop offset="0.0001" stop-color="#6067F2"/>
<stop offset="0.940625" stop-color="#343434"/>
</radialGradient>
<linearGradient id="paint2_linear_0_1" x1="91.0769" y1="-453.163" x2="1329.43" y2="693.175" gradientUnits="userSpaceOnUse">
<stop stop-color="white" stop-opacity="0.54"/>
<stop offset="1" stop-color="white" stop-opacity="0.05"/>
</linearGradient>
<linearGradient id="paint3_linear_0_1" x1="-32" y1="-369.322" x2="160.434" y2="547.997" gradientUnits="userSpaceOnUse">
<stop stop-color="#5321CA"/>
<stop offset="1" stop-color="#1B005C" stop-opacity="0.53"/>
</linearGradient>
<clipPath id="clip0_0_1">
<rect width="1600" height="1200" fill="white" transform="translate(-191 -531)"/>
</clipPath>
<clipPath id="clip1_0_1">
<rect x="-21" y="-353" width="160" height="819" rx="25" fill="white"/>
</clipPath>
</defs>
</svg>
