<svg width="24" height="24" viewBox="0 0 24 24" fill="none" xmlns="http://www.w3.org/2000/svg">
<g id="GearSix">
<path id="Vector" d="M22.2655 9.77802C22.2422 9.67318 22.1966 9.57456 22.1319 9.48884C22.0672 9.40311 21.9849 9.33228 21.8905 9.28114L19.6592 8.04364C19.5405 7.79989 19.4092 7.56552 19.2655 7.34052L19.303 4.79052C19.3038 4.68356 19.2826 4.57757 19.2407 4.47918C19.1987 4.38078 19.137 4.29209 19.0592 4.21864C17.9482 3.21136 16.6344 2.45374 15.2061 1.99677C15.1035 1.96478 14.9953 1.95493 14.8887 1.96786C14.782 1.98079 14.6793 2.0162 14.5873 2.07177L12.403 3.38427C12.1311 3.37489 11.8686 3.37489 11.5967 3.38427L9.41233 2.07177C9.32037 2.0162 9.21766 1.98079 9.111 1.96786C9.00434 1.95493 8.89615 1.96478 8.79358 1.99677C7.36339 2.45409 6.04898 3.21523 4.94045 4.22802C4.86202 4.29894 4.79969 4.38584 4.75765 4.48286C4.7156 4.57989 4.69482 4.68479 4.6967 4.79052L4.74358 7.34052C4.59358 7.56552 4.46233 7.79989 4.33108 8.04364L2.1092 9.28114C2.01359 9.33074 1.93028 9.4011 1.86539 9.48708C1.8005 9.57306 1.75568 9.67247 1.7342 9.77802C1.41542 11.2421 1.41542 12.7577 1.7342 14.2218C1.75749 14.3266 1.80302 14.4252 1.86772 14.5109C1.93241 14.5967 2.01477 14.6675 2.1092 14.7186L4.34045 15.9561C4.46006 16.1987 4.5947 16.4335 4.74358 16.6593L4.6967 19.2093C4.69584 19.3162 4.71705 19.4222 4.75899 19.5206C4.80093 19.619 4.8627 19.7077 4.94045 19.7811C6.05296 20.7863 7.36633 21.5437 8.79358 22.003C8.89615 22.035 9.00434 22.0449 9.111 22.0319C9.21766 22.019 9.32037 21.9836 9.41233 21.928L11.5967 20.6155H12.403L14.5967 21.928C14.7107 22.003 14.8446 22.0422 14.9811 22.0405C15.0573 22.0372 15.1329 22.0246 15.2061 22.003C16.6363 21.5457 17.9507 20.7846 19.0592 19.7718C19.1376 19.7008 19.2 19.6139 19.242 19.5169C19.2841 19.4199 19.3048 19.315 19.303 19.2093L19.2655 16.6593C19.4061 16.4343 19.5373 16.1999 19.6686 15.9561L21.8998 14.7186C21.9929 14.667 22.0737 14.5958 22.1368 14.5101C22.1999 14.4243 22.2438 14.326 22.2655 14.2218C22.5842 12.7577 22.5842 11.2421 22.2655 9.77802ZM16.1248 11.9999C16.1248 12.8157 15.8829 13.6133 15.4296 14.2916C14.9764 14.97 14.3321 15.4987 13.5784 15.8109C12.8247 16.1231 11.9953 16.2048 11.1951 16.0456C10.3949 15.8865 9.6599 15.4936 9.08301 14.9167C8.50612 14.3398 8.11325 13.6048 7.95409 12.8046C7.79492 12.0045 7.87661 11.1751 8.18882 10.4213C8.50104 9.66758 9.02975 9.02334 9.7081 8.57008C10.3865 8.11682 11.184 7.87489 11.9998 7.87489C13.0938 7.87489 14.1431 8.30949 14.9166 9.08308C15.6902 9.85666 16.1248 10.9059 16.1248 11.9999Z" fill="#D5BBFF"/>
</g>
</svg>
