<svg width="24" height="24" viewBox="0 0 24 24" fill="none" xmlns="http://www.w3.org/2000/svg">
<rect width="24" height="24" fill="#EFEFEF"/>
<g id="Sales dashboard" clip-path="url(#clip0_0_1)">
<rect width="1600" height="1200" transform="translate(-191 -467)" fill="#565656"/>
<rect width="1600" height="1200" transform="translate(-191 -467)" fill="url(#paint0_radial_0_1)"/>
<g id="Vector 7" filter="url(#filter0_f_0_1)">
<path d="M-235.299 155.712C-249.913 112.666 -250.305 -7.52526 -134.956 -143.918C9.23106 -314.408 97.1479 -345.695 -50.3543 -520" stroke="#7AFF29" stroke-width="34"/>
</g>
<g id="Group 60">
<g id="Rectangle 18" filter="url(#filter1_bd_0_1)">
<rect x="-53" y="-319" width="1324" height="904" rx="56" fill="url(#paint1_radial_0_1)" fill-opacity="0.8" shape-rendering="crispEdges"/>
<rect x="-52.5" y="-318.5" width="1323" height="903" rx="55.5" stroke="url(#paint2_linear_0_1)" shape-rendering="crispEdges"/>
</g>
<g id="Frame 2" filter="url(#filter2_d_0_1)">
<g clip-path="url(#clip1_0_1)">
<rect x="-21" y="-289" width="160" height="819" rx="25" fill="url(#paint3_linear_0_1)" shape-rendering="crispEdges"/>
<g id="Group 50">
<g id="Frame 25">
<g id="Frame 12">
<g id="Frame 14">
<g id="Users">
<path id="Vector" d="M11.3624 14.8033C12.3686 14.1348 13.133 13.1601 13.5422 12.0235C13.9515 10.8869 13.984 9.64875 13.6349 8.49224C13.2857 7.33574 12.5736 6.32236 11.6037 5.60207C10.6339 4.88178 9.45794 4.49286 8.24989 4.49286C7.04184 4.49286 5.86588 4.88178 4.89604 5.60207C3.92621 6.32236 3.21403 7.33574 2.86491 8.49224C2.51578 9.64875 2.54826 10.8869 2.95753 12.0235C3.36681 13.1601 4.13113 14.1348 5.13739 14.8033C3.4208 15.4345 1.93871 16.5763 0.890513 18.0751C0.808638 18.1863 0.759905 18.3184 0.74995 18.4561C0.739996 18.5938 0.769227 18.7315 0.834263 18.8533C0.89853 18.9742 0.994331 19.0756 1.11151 19.1466C1.22869 19.2175 1.36289 19.2555 1.49989 19.2564H14.9999C15.1369 19.2555 15.2711 19.2175 15.3883 19.1466C15.5054 19.0756 15.6012 18.9742 15.6655 18.8533C15.7305 18.7315 15.7598 18.5938 15.7498 18.4561C15.7399 18.3184 15.6911 18.1863 15.6093 18.0751C14.5611 16.5763 13.079 15.4345 11.3624 14.8033Z" fill="#D5BBFF"/>
<path id="Vector_2" d="M23.2595 18.075C22.2054 16.5781 20.721 15.437 19.0033 14.8032C20.0127 14.1372 20.7802 13.1633 21.1916 12.0261C21.6031 10.8889 21.6364 9.64931 21.2867 8.49167C20.937 7.33403 20.2229 6.32021 19.2507 5.60102C18.2785 4.88182 17.1001 4.49568 15.8908 4.50004C15.3746 4.50277 14.861 4.5721 14.3626 4.70629C14.2456 4.74145 14.1386 4.80401 14.0505 4.8888C13.9625 4.97358 13.8959 5.07813 13.8564 5.19379C13.8187 5.30849 13.8092 5.43061 13.8288 5.54976C13.8484 5.66891 13.8964 5.78157 13.9689 5.87816C14.8168 7.01739 15.3039 8.38452 15.3674 9.80323C15.4309 11.2219 15.0679 12.6271 14.3251 13.8375C14.2299 13.9984 14.1973 14.1887 14.2336 14.372C14.27 14.5554 14.3726 14.7189 14.522 14.8313C14.8033 15.05 15.0751 15.275 15.3376 15.5063L15.3845 15.5532C16.3852 16.4792 17.197 17.5903 17.7751 18.825C17.8345 18.9541 17.9296 19.0633 18.0493 19.1398C18.169 19.2162 18.3081 19.2567 18.4501 19.2563H22.6408C22.7778 19.2554 22.912 19.2174 23.0291 19.1465C23.1463 19.0755 23.2421 18.9741 23.3064 18.8532C23.3706 18.7316 23.4003 18.5948 23.392 18.4575C23.3837 18.3203 23.3379 18.188 23.2595 18.075Z" fill="#D5BBFF"/>
</g>
</g>
</g>
</g>
</g>
</g>
</g>
</g>
</g>
<defs>
<filter id="filter0_f_0_1" x="-434.043" y="-705.982" width="651.825" height="1042.16" filterUnits="userSpaceOnUse" color-interpolation-filters="sRGB">
<feFlood flood-opacity="0" result="BackgroundImageFix"/>
<feBlend mode="normal" in="SourceGraphic" in2="BackgroundImageFix" result="shape"/>
<feGaussianBlur stdDeviation="87.5" result="effect1_foregroundBlur_0_1"/>
</filter>
<filter id="filter1_bd_0_1" x="-104" y="-370" width="1438" height="1036" filterUnits="userSpaceOnUse" color-interpolation-filters="sRGB">
<feFlood flood-opacity="0" result="BackgroundImageFix"/>
<feGaussianBlur in="BackgroundImageFix" stdDeviation="25.5"/>
<feComposite in2="SourceAlpha" operator="in" result="effect1_backgroundBlur_0_1"/>
<feColorMatrix in="SourceAlpha" type="matrix" values="0 0 0 0 0 0 0 0 0 0 0 0 0 0 0 0 0 0 127 0" result="hardAlpha"/>
<feMorphology radius="17" operator="dilate" in="SourceAlpha" result="effect2_dropShadow_0_1"/>
<feOffset dx="10" dy="28"/>
<feGaussianBlur stdDeviation="18"/>
<feComposite in2="hardAlpha" operator="out"/>
<feColorMatrix type="matrix" values="0 0 0 0 0 0 0 0 0 0 0 0 0 0 0 0 0 0 0.25 0"/>
<feBlend mode="normal" in2="effect1_backgroundBlur_0_1" result="effect2_dropShadow_0_1"/>
<feBlend mode="normal" in="SourceGraphic" in2="effect2_dropShadow_0_1" result="shape"/>
</filter>
<filter id="filter2_d_0_1" x="-43" y="-290" width="204" height="863" filterUnits="userSpaceOnUse" color-interpolation-filters="sRGB">
<feFlood flood-opacity="0" result="BackgroundImageFix"/>
<feColorMatrix in="SourceAlpha" type="matrix" values="0 0 0 0 0 0 0 0 0 0 0 0 0 0 0 0 0 0 127 0" result="hardAlpha"/>
<feMorphology radius="1" operator="dilate" in="SourceAlpha" result="effect1_dropShadow_0_1"/>
<feOffset dy="21"/>
<feGaussianBlur stdDeviation="10.5"/>
<feComposite in2="hardAlpha" operator="out"/>
<feColorMatrix type="matrix" values="0 0 0 0 0.176484 0 0 0 0 0.113295 0 0 0 0 0.279167 0 0 0 0.53 0"/>
<feBlend mode="normal" in2="BackgroundImageFix" result="effect1_dropShadow_0_1"/>
<feBlend mode="normal" in="SourceGraphic" in2="effect1_dropShadow_0_1" result="shape"/>
</filter>
<radialGradient id="paint0_radial_0_1" cx="0" cy="0" r="1" gradientUnits="userSpaceOnUse" gradientTransform="translate(874 -449.5) rotate(100.416) scale(2295.33 3060.44)">
<stop stop-color="#2C0E6A"/>
<stop offset="1" stop-color="#070312" stop-opacity="0.5"/>
</radialGradient>
<radialGradient id="paint1_radial_0_1" cx="0" cy="0" r="1" gradientUnits="userSpaceOnUse" gradientTransform="translate(634.896 43.7455) rotate(82.2465) scale(896.927 1333.32)">
<stop offset="0.0001" stop-color="#6067F2"/>
<stop offset="0.940625" stop-color="#343434"/>
</radialGradient>
<linearGradient id="paint2_linear_0_1" x1="91.0769" y1="-389.163" x2="1329.43" y2="757.175" gradientUnits="userSpaceOnUse">
<stop stop-color="white" stop-opacity="0.54"/>
<stop offset="1" stop-color="white" stop-opacity="0.05"/>
</linearGradient>
<linearGradient id="paint3_linear_0_1" x1="-32" y1="-305.322" x2="160.434" y2="611.997" gradientUnits="userSpaceOnUse">
<stop stop-color="#5321CA"/>
<stop offset="1" stop-color="#1B005C" stop-opacity="0.53"/>
</linearGradient>
<clipPath id="clip0_0_1">
<rect width="1600" height="1200" fill="white" transform="translate(-191 -467)"/>
</clipPath>
<clipPath id="clip1_0_1">
<rect x="-21" y="-289" width="160" height="819" rx="25" fill="white"/>
</clipPath>
</defs>
</svg>
